# xmcd
#
# Track frame offsets:
#	150
#	14002
#	28078
#	43818
#	54126
#	64352
#	76598
#	90978
#	100868
#	112808
#	122172
#	134194
#	145964
#	159981
#	168922
#	179459
#
# Disc length: 2540 seconds
#
# Revision: 1
# Processed by: cddbd v1.4PL0 Copyright (c) Steve Scherf et al.
# Submitted via: CDmax 2.0
#
DISCID=d209ea10
DTITLE=Memphis Slim - Messin' Around
DYEAR=2000
DGENRE=Blues
TTITLE0=Messin' Around
TTITLE1=Blue and Lonesome
TTITLE2=Mother Earth
TTITLE3=Gotta Find My Baby
TTITLE4=The Comeback
TTITLE5=Sassy Mae
TTITLE6=Lend Me Your Love
TTITLE7=Guitar Cha Cha
TTITLE8=Stroll On Little Girl
TTITLE9=Rockin' the House
TTITLE10=Wish Me Well
TTITLE11=My Gal Keeps Me Crying
TTITLE12=Slim's Blues
TTITLE13=Steppin' Out
TTITLE14=What's the Matter
TTITLE15=This Time I'm Through
EXTD=LABEL =Digimode Entertainment Ltd.\nID =BFY47026\nUPC =8712273-470269
EXTD=\nCOPYRIGHT =2000
EXTT0=
EXTT1=
EXTT2=
EXTT3=
EXTT4=
EXTT5=
EXTT6=
EXTT7=
EXTT8=
EXTT9=
EXTT10=
EXTT11=
EXTT12=
EXTT13=
EXTT14=
EXTT15=
PLAYORDER=
